<svg width="25.000000" height="25.000000" viewBox="0 0 25 25" fill="none" xmlns="http://www.w3.org/2000/svg" xmlns:xlink="http://www.w3.org/1999/xlink">
	<desc>
			Created with Pixso.
	</desc>
	<defs/>
	<g opacity="0.000000">
		<path id="Vector" d="M0 0L25 0L25 25L0 25L0 0Z" fill="#149211" fill-opacity="1.000000" fill-rule="evenodd"/>
	</g>
	<path id="Vector" d="M11.5728 23.9583C11.4521 23.9581 11.3323 23.937 11.2188 23.8958C10.9998 23.8156 10.814 23.6642 10.6912 23.4659C10.5684 23.2676 10.5156 23.0338 10.5415 22.802L11.3438 15.4166L5.20825 15.4166C5.01904 15.4169 4.83325 15.3656 4.6709 15.2683C4.50879 15.171 4.37598 15.0313 4.28711 14.8642C4.19824 14.6971 4.15649 14.509 4.1665 14.3201C4.17651 14.1311 4.23779 13.9484 4.34375 13.7916L12.5625 1.49994C12.6924 1.30756 12.8831 1.16418 13.1038 1.09247C13.3245 1.02075 13.563 1.02484 13.7812 1.10413C13.991 1.18201 14.1702 1.32532 14.292 1.51294C14.4141 1.70056 14.4722 1.92242 14.4583 2.14575L13.6562 9.58325L19.7915 9.58325C19.981 9.58301 20.1665 9.63428 20.3289 9.73157C20.4912 9.82892 20.6238 9.96857 20.7129 10.1357C20.8018 10.3027 20.8433 10.4908 20.8335 10.6798C20.8235 10.8688 20.7622 11.0515 20.6562 11.2083L12.4375 23.4999C12.3418 23.6413 12.2131 23.757 12.0623 23.837C11.9116 23.9169 11.7434 23.9585 11.5728 23.9583ZM7.15625 13.3333L12.5 13.3333C12.6453 13.3336 12.7891 13.3644 12.9216 13.4236C13.0544 13.4828 13.1733 13.5691 13.2708 13.677C13.3691 13.7864 13.4431 13.9153 13.488 14.0554C13.533 14.1954 13.5476 14.3434 13.5312 14.4895L13.0625 18.8124L17.8438 11.6666L12.5 11.6666C12.353 11.6675 12.2075 11.6373 12.073 11.5779C11.9385 11.5186 11.8181 11.4314 11.7197 11.3222C11.6213 11.213 11.5471 11.0842 11.5022 10.9443C11.457 10.8043 11.4421 10.6564 11.4583 10.5104L11.927 6.18744L7.15625 13.3333Z" fill="#149211" fill-opacity="1.000000" fill-rule="nonzero"/>
</svg>
