<svg width="25.000000" height="25.000000" viewBox="0 0 25 25" fill="none" xmlns="http://www.w3.org/2000/svg" xmlns:xlink="http://www.w3.org/1999/xlink">
	<desc>
			Created with Pixso.
	</desc>
	<defs/>
	<g opacity="0.000000">
		<path id="Vector" d="M0 0L25 0L25 25L0 25L0 0Z" fill="#FFC700" fill-opacity="1.000000" fill-rule="evenodd"/>
	</g>
	<path id="Vector" d="M13.406 22.9167C12.9031 22.9161 12.4204 22.7179 12.0623 22.3646L5.38525 15.6771C5.21387 15.5068 5.10718 15.2822 5.08325 15.0417L4.1665 5.30212C4.15234 5.1496 4.17236 4.99579 4.22437 4.85175C4.27661 4.7077 4.36011 4.57697 4.46851 4.46881C4.57666 4.36029 4.70752 4.27692 4.85156 4.22473C4.99561 4.17249 5.14941 4.15271 5.302 4.16675L15.0415 5.08337C15.282 5.10736 15.5066 5.21411 15.677 5.3855L22.3645 12.0626C22.7188 12.4179 22.9177 12.8993 22.9177 13.4011C22.9177 13.903 22.7188 14.3843 22.3645 14.7396L14.7395 22.3646C14.385 22.7172 13.906 22.9156 13.406 22.9167ZM7.15601 14.4688L13.406 20.7188L20.7498 13.3751L14.4998 7.12506L6.3645 6.36462L7.15601 14.4688Z" fill="#FFC700" fill-opacity="1.000000" fill-rule="nonzero"/>
	<path id="Vector" d="M12.5 10.9375C12.5 11.8004 11.8005 12.5 10.9375 12.5C10.0745 12.5 9.375 11.8004 9.375 10.9375C9.375 10.0746 10.0745 9.375 10.9375 9.375C11.8005 9.375 12.5 10.0746 12.5 10.9375Z" fill="#FFC700" fill-opacity="1.000000" fill-rule="evenodd"/>
</svg>
